# xmcd
#
# Track frame offsets: 
#        150
#        15410
#        26491
#        40818
#        55072
#        67148
#        78352
#        105243
#        122260
#        134653
#        153517
#        172233
#        188225
#        202094
#        218941
#        236350
#        249496
#        259728
#        276502
#        297510
#
# Disc length: 4195 seconds
#
# Revision: 1
# Processed by: cddbd v1.5.2PL0 Copyright (c) Steve Scherf et al.
# Submitted via: ExactAudioCopy v0.95b2
#
DISCID=27106114
DTITLE=Black Ivory - Spinning Around
DYEAR=2003
DGENRE=Jazz
TTITLE0=Don't Turn Around
TTITLE1=Surrender
TTITLE2=I'll Find A Way
TTITLE3=I Keep Asking You Questions
TTITLE4=She Said That She's Leaving
TTITLE5=If I Could Be A Mirror
TTITLE6=You And I
TTITLE7=Our Future
TTITLE8=Find The One Who Loves You
TTITLE9=Got To Be There
TTITLE10=Baby, Won't You Change Your Mind
TTITLE11=Just Leave Me Some
TTITLE12=Push Come To Shove
TTITLE13=Time Is Love
TTITLE14=Spinning Around
TTITLE15=It's Time To Say Goodbye
TTITLE16=One-Way Ticket To Loveland
TTITLE17=No Ifs, Ands Or Buts
TTITLE18=Wishful Thinking
TTITLE19=We Made It
EXTD=YEAR: 2003
EXTT0=
EXTT1=
EXTT2=
EXTT3=
EXTT4=
EXTT5=
EXTT6=
EXTT7=
EXTT8=
EXTT9=
EXTT10=
EXTT11=
EXTT12=
EXTT13=
EXTT14=
EXTT15=
EXTT16=
EXTT17=
EXTT18=
EXTT19=
PLAYORDER=
